<?xml version="1.0" encoding="utf-8"?>
<!-- Generator: Adobe Illustrator 23.0.2, SVG Export Plug-In . SVG Version: 6.00 Build 0)  -->
<svg version="1.1" xmlns="http://www.w3.org/2000/svg" xmlns:xlink="http://www.w3.org/1999/xlink" x="0px" y="0px"
	 viewBox="0 0 504 252" style="enable-background:new 0 0 504 252;" xml:space="preserve">
<style type="text/css">
	.st0{fill:#BDBDBD;}
	.st1{fill:#757575;}
	.st2{clip-path:url(#SVGID_2_);}
	.st3{clip-path:url(#SVGID_4_);fill:#78C257;}
</style>
<g id="headline">
	<g>
		<g>
			<path class="st0" d="M213.33,149.65h2.52l0.26,2.29h0.11c1.67-1.59,4.03-2.74,6.22-2.74c4.85,0,7.44,3.59,7.44,9.18
				c0,6.11-3.85,9.69-8.18,9.69c-1.67,0-3.74-0.85-5.37-2.33h-0.07l0.15,3.4v6.07h-3.07V149.65z M226.72,158.39
				c0-3.96-1.48-6.59-5.07-6.59c-1.59,0-3.44,0.81-5.25,2.66v8.95c1.67,1.52,3.55,2.07,4.77,2.07
				C224.35,165.49,226.72,162.83,226.72,158.39z"/>
			<path class="st0" d="M241.19,161.61v-17.84h-6.36v-2.48h9.44v20.54c0,2.59,1.41,3.7,3.55,3.7c1.04,0,2.15-0.26,3.37-0.81
				l0.78,2.29c-1.67,0.7-2.85,1.07-4.81,1.07C243.3,168.08,241.19,165.86,241.19,161.61z"/>
			<path class="st0" d="M257.14,160.83v-11.17h3.07v10.77c0,3.37,1.18,5,4.14,5c2.07,0,3.59-0.96,5.59-3.29v-12.47h3.07v17.98h-2.55
				l-0.26-3.15h-0.15c-1.81,2.11-3.92,3.59-6.7,3.59C259.1,168.08,257.14,165.56,257.14,160.83z"/>
			<path class="st0" d="M279.15,170.93c0-1.44,1.04-2.89,2.96-4v-0.15c-0.96-0.52-1.85-1.44-1.85-2.96c0-1.15,0.78-2.44,2.15-3.37
				v-0.15c-1.22-0.92-2.22-2.52-2.22-4.66c0-3.92,3.26-6.44,7.07-6.44c1.04,0,1.89,0.15,2.66,0.44h7.44v2.48h-4.66
				c0.81,0.85,1.52,2.18,1.52,3.63c0,3.85-3.07,6.18-6.96,6.18c-0.92,0-2.04-0.22-3.03-0.67c-0.89,0.55-1.41,1.22-1.41,2.07
				c0,1.41,1.37,2.07,3.74,2.07h4.03c4.62,0,6.85,1.18,6.85,4.22c0,3.37-3.89,6.29-9.99,6.29
				C282.18,175.93,279.15,174.11,279.15,170.93z M294.43,170.12c0-1.7-1.37-2.18-4.11-2.18h-3.52c-1.04,0-1.96-0.07-2.74-0.3
				c-1.7,0.93-2.29,1.96-2.29,3c0,1.89,2.04,3.07,5.88,3.07C291.84,173.71,294.43,171.97,294.43,170.12z M291.4,155.65
				c0-2.52-1.85-4.22-4.14-4.22c-2.26,0-4.14,1.7-4.14,4.22c0,2.59,1.89,4.26,4.14,4.26C289.55,159.9,291.4,158.24,291.4,155.65z"/>
			<path class="st0" d="M310.34,152.13h-8.33v-2.48h11.4v17.98h-3.07V152.13z M309.12,143.51c0-1.41,1.04-2.37,2.44-2.37
				s2.44,0.96,2.44,2.37c0,1.44-1.04,2.37-2.44,2.37S309.12,144.95,309.12,143.51z"/>
			<path class="st0" d="M324.33,149.65h2.52l0.26,3.03h0.15c1.89-1.96,3.96-3.48,6.77-3.48c4.26,0,6.22,2.52,6.22,7.25v11.17h-3.07
				v-10.77c0-3.4-1.18-5-4.11-5c-2.15,0-3.59,1.07-5.66,3.22v12.54h-3.07V149.65z"/>
		</g>
		<g>
			<path class="st1" d="M209.62,111.85c0-6.46,4.87-10.37,10.18-10.37c5.82,0,9.14,3.82,9.14,9.36c0,0.85-0.1,1.68-0.19,2.2h-16.32
				v-2.96h13.8l-0.88,0.99c0-4.3-2.08-6.45-5.44-6.45c-3.47,0-6.32,2.56-6.32,7.24c0,4.87,3.06,7.27,7.32,7.27
				c2.22,0,4.01-0.67,5.8-1.75l1.42,2.56c-2.04,1.34-4.68,2.35-7.72,2.35C214.38,122.29,209.62,118.46,209.62,111.85z"/>
			<path class="st1" d="M243.77,105.19h-8.87v-3.23h12.92v19.84h-4.04V105.19z M242.45,95.21c0-1.71,1.27-2.89,3.01-2.89
				c1.74,0,3.01,1.18,3.01,2.89c0,1.74-1.27,2.87-3.01,2.87C243.72,98.08,242.45,96.95,242.45,95.21z"/>
			<path class="st1" d="M259.69,102.17l5.67-0.21h11.8v3.23h-17.47V102.17z M265.25,100.59c0-4.75,2.56-8.07,8.23-8.07
				c2.04,0,3.97,0.4,5.79,1.12l-0.87,3c-1.53-0.64-2.83-0.9-4.49-0.9c-3.28,0-4.65,1.76-4.65,4.74v21.31h-4.01V100.59z"/>
			<path class="st1" d="M284.05,102.17l5.67-0.21h11.8v3.23h-17.47V102.17z M289.61,100.59c0-4.75,2.56-8.07,8.23-8.07
				c2.04,0,3.97,0.4,5.79,1.12l-0.87,3c-1.53-0.64-2.83-0.9-4.49-0.9c-3.28,0-4.65,1.76-4.65,4.74v21.31h-4.01V100.59z"/>
			<path class="st1" d="M307.08,111.85c0-6.46,4.87-10.37,10.18-10.37c5.82,0,9.14,3.82,9.14,9.36c0,0.85-0.1,1.68-0.19,2.2h-16.32
				v-2.96h13.8l-0.88,0.99c0-4.3-2.08-6.45-5.44-6.45c-3.47,0-6.32,2.56-6.32,7.24c0,4.87,3.06,7.27,7.32,7.27
				c2.22,0,4.01-0.67,5.8-1.75l1.42,2.56c-2.04,1.34-4.68,2.35-7.72,2.35C311.83,122.29,307.08,118.46,307.08,111.85z"/>
			<path class="st1" d="M338.38,114.86V96.24h-6.82v-3.23h10.86v22.09c0,2.75,1.56,3.86,3.74,3.86c1.08,0,2.24-0.26,3.55-0.83
				l0.97,3c-1.9,0.75-3.22,1.15-5.47,1.15C340.78,122.29,338.38,119.64,338.38,114.86z"/>
			<path class="st1" d="M361.7,107.64c0-2.19,1.58-3.79,3.66-3.79c2.08,0,3.66,1.6,3.66,3.79c0,2.23-1.58,3.79-3.66,3.79
				C363.29,111.44,361.7,109.87,361.7,107.64z"/>
			<path class="st1" d="M380.6,116.56c0-4.45,4.04-6.64,14.05-7.39c-0.14-2.45-1.46-4.42-4.99-4.42c-2.4,0-4.76,1.1-6.71,2.23
				l-1.54-2.7c2.23-1.38,5.53-2.81,8.97-2.81c5.47,0,8.31,3.14,8.31,8.38v11.95h-3.34l-0.32-2.57h-0.13
				c-2.12,1.66-4.88,3.06-7.6,3.06C383.51,122.29,380.6,120.06,380.6,116.56z M394.65,116.41v-4.65c-7.79,0.56-10.1,2.12-10.1,4.5
				c0,1.99,1.79,2.82,3.91,2.82C390.58,119.08,392.6,118.08,394.65,116.41z"/>
			<path class="st1" d="M404.02,101.96h3.15l0.32,2.57h0.1c0.95-1.77,2.18-3.06,4.47-3.06c1.9,0,3.13,1.14,3.68,3.38
				c1.03-2.04,2.3-3.38,4.58-3.38c2.79,0,4.42,2.24,4.42,6.2v14.13h-3.94v-13.84c0-2.01-0.56-3.03-1.85-3.03
				c-1.22,0-1.9,0.92-2.83,2.77v14.11h-3.5v-13.84c0-2.01-0.52-3.03-1.8-3.03c-1.21,0-2.01,0.92-2.87,2.77v14.11h-3.94V101.96z"/>
			<path class="st1" d="M438.68,105.19h-8.87v-3.23h12.92v19.84h-4.04V105.19z M437.36,95.21c0-1.71,1.27-2.89,3.01-2.89
				s3.01,1.18,3.01,2.89c0,1.74-1.27,2.87-3.01,2.87S437.36,96.95,437.36,95.21z"/>
			<path class="st1" d="M468.55,109.88h-14.63v-2.96h17.78v10.76h-3.15V109.88z"/>
		</g>
	</g>
</g>
<g id="logo">
	<g>
		<g>
			<defs>
				<rect id="SVGID_1_" x="5.49" y="23.49" width="205" height="205"/>
			</defs>
			<clipPath id="SVGID_2_">
				<use xlink:href="#SVGID_1_"  style="overflow:visible;"/>
			</clipPath>
			<g class="st2">
				<defs>
					<rect id="SVGID_3_" x="5.49" y="23.49" width="205" height="205"/>
				</defs>
				<clipPath id="SVGID_4_">
					<use xlink:href="#SVGID_3_"  style="overflow:visible;"/>
				</clipPath>
				<path class="st3" d="M153.09,207.99c0,0-7.79-10.56-16.4-29.23v-7.67h-3.36c-3.07-7.36-6.17-15.95-8.94-25.48v-5.27h-1.46
					c-4.69-17.47-8.2-41.88-8.79-63.55h2.05v-12.3h-2.77l4.98-10.09c0.08-0.14,0.12-0.29,0.12-0.45c0-0.37-0.23-0.74-0.57-0.92
					c-0.51-0.25-1.13-0.04-1.37,0.47l-5.45,10.99h-6.27L99.4,53.51c-0.25-0.51-0.86-0.72-1.37-0.47c-0.35,0.18-0.57,0.55-0.57,0.92
					c0,0.16,0.04,0.31,0.12,0.45l4.98,10.09h-2.77v12.3h2.05c-0.59,21.67-4.1,46.08-8.79,63.55h-1.46v5.27
					c-2.77,9.53-5.86,18.12-8.94,25.48h-3.36v7.67c-8.61,18.68-16.4,29.23-16.4,29.23h24.6c0,0-1.37-22.55,20.5-22.55
					s20.5,22.55,20.5,22.55H153.09z M108.42,174.85l-0.43,0.35l-0.43-0.35c-9.16-7.46-11.66-10.11-11.66-14.37
					c0-3.55,2.85-6.4,6.42-6.4c2.91,0,4.55,1.64,5.68,2.91c1.13-1.27,2.77-2.91,5.68-2.91c3.57,0,6.42,2.85,6.42,6.4
					C120.09,164.74,117.59,167.38,108.42,174.85"/>
			</g>
		</g>
	</g>
</g>
</svg>
